<svg width="9" height="17" viewBox="0 0 9 17" fill="none" xmlns="http://www.w3.org/2000/svg">
<path d="M8.63996 11.224C8.63996 10.162 8.29796 9.388 7.57796 8.83C6.87596 8.272 6.28196 8.002 5.21996 7.642V2.962C6.22796 3.124 6.92996 3.682 7.30796 4.636L8.36996 4.042C7.79396 2.692 6.64196 1.882 5.21996 1.72V0.0999998H4.13996V1.702C3.18596 1.792 2.37596 2.152 1.74596 2.746C1.11596 3.34 0.809961 4.096 0.809961 5.032C0.809961 6.058 1.11596 6.832 1.81796 7.354C2.51996 7.876 3.05996 8.128 4.13996 8.506V13.474C2.66396 13.348 1.70996 12.682 1.25996 11.458L0.179961 12.088C0.773961 13.618 2.19596 14.572 4.13996 14.698V16.3H5.21996V14.68C6.22796 14.572 7.05596 14.212 7.68596 13.582C8.31596 12.952 8.63996 12.16 8.63996 11.224ZM2.06996 5.032C2.06996 3.862 2.89796 3.088 4.13996 2.944V7.246C2.71796 6.688 2.06996 6.13 2.06996 5.032ZM5.21996 8.884C6.65996 9.46 7.37996 10.054 7.37996 11.224C7.37996 12.43 6.56996 13.258 5.21996 13.456V8.884Z" fill="#676262"/>
</svg>
