<svg width="12" height="8" viewBox="0 0 12 8" fill="none" xmlns="http://www.w3.org/2000/svg">
<path d="M6.84576 7.3995L11.6418 1.9185C12.2078 1.2715 11.7478 0.259499 10.8888 0.259499L1.29676 0.2595C1.10452 0.259335 0.9163 0.314588 0.754649 0.418641C0.592999 0.522694 0.464769 0.671137 0.385312 0.846193C0.305856 1.02125 0.278544 1.2155 0.306646 1.40568C0.334748 1.59586 0.417073 1.77391 0.543762 1.9185L5.33976 7.3985C5.43362 7.50591 5.54938 7.592 5.67925 7.65098C5.80913 7.70996 5.95012 7.74048 6.09276 7.74048C6.2354 7.74048 6.3764 7.70996 6.50627 7.65098C6.63615 7.592 6.7519 7.50591 6.84576 7.3985L6.84576 7.3995Z" fill="#676262"/>
</svg>
