<svg width="28" height="28" viewBox="0 0 28 28" fill="none" xmlns="http://www.w3.org/2000/svg">
<g filter="url(#filter0_d_1:4378)">
<path d="M15 3H19V5H15V3ZM5 8H9V10H5V8ZM5 16H9V18H5V16ZM4 12H7.99V14H4V12ZM23.707 6.707L22.293 5.293L20.586 7C19.5041 6.34616 18.2641 6.00037 17 6C13.141 6 10 9.141 10 13C10 16.859 13.141 20 17 20C20.859 20 24 16.859 24 13C23.999 11.2461 23.3366 9.55701 22.145 8.27L23.707 6.707ZM18 14H16V8.958H18V14Z" fill="url(#paint0_linear_1:4378)"/>
</g>
<defs>
<filter id="filter0_d_1:4378" x="-2" y="0" width="32" height="32" filterUnits="userSpaceOnUse" color-interpolation-filters="sRGB">
<feFlood flood-opacity="0" result="BackgroundImageFix"/>
<feColorMatrix in="SourceAlpha" type="matrix" values="0 0 0 0 0 0 0 0 0 0 0 0 0 0 0 0 0 0 127 0" result="hardAlpha"/>
<feOffset dy="4"/>
<feGaussianBlur stdDeviation="2"/>
<feComposite in2="hardAlpha" operator="out"/>
<feColorMatrix type="matrix" values="0 0 0 0 0 0 0 0 0 0 0 0 0 0 0 0 0 0 0.25 0"/>
<feBlend mode="normal" in2="BackgroundImageFix" result="effect1_dropShadow_1:4378"/>
<feBlend mode="normal" in="SourceGraphic" in2="effect1_dropShadow_1:4378" result="shape"/>
</filter>
<linearGradient id="paint0_linear_1:4378" x1="14" y1="20" x2="14" y2="3" gradientUnits="userSpaceOnUse">
<stop stop-color="#009EFD"/>
<stop offset="1" stop-color="#2AF598"/>
</linearGradient>
</defs>
</svg>
