<svg width="82" height="69" viewBox="0 0 82 69" fill="none" xmlns="http://www.w3.org/2000/svg">
<path d="M0.0385742 0V0.660689V39.1128L5.85264 42.8127L23.5591 14.9316L0.0385742 0Z" fill="#243C66"/>
<path d="M81.9619 0.660689V0L58.4414 14.9316L76.1479 42.8127L81.9619 39.1128V0.660689Z" fill="url(#paint0_linear_1:3905)"/>
<path d="M66.7657 48.4947C71.7868 45.3234 73.1081 38.4523 69.6726 33.1667L65.4444 26.5598C62.009 21.2743 55.2702 19.5565 50.2492 22.7278L35.1861 32.2418C30.165 35.4131 28.8437 42.2843 32.2791 47.5698L36.5074 54.1767C39.9428 59.4622 46.6816 61.18 51.7026 58.0087L66.7657 48.4947Z" fill="#E29D81"/>
<path d="M64.9158 49.6839C66.7656 48.4946 67.2942 45.984 66.105 44.1341C64.9158 42.2841 62.4053 41.7556 60.5554 42.9448L32.8076 60.5192C30.9577 61.7084 30.4292 64.219 31.6184 66.069C32.8076 67.9189 35.3181 68.4474 37.1679 67.2582L64.9158 49.6839Z" fill="#E29D81"/>
<path d="M32.4111 47.5693L36.6394 54.1761C40.0748 59.4617 46.8136 61.1794 51.8346 58.0081L66.8977 48.4942C71.9187 45.3229 73.2401 38.4517 69.8046 33.1662L65.5764 26.5593" fill="#D3856A"/>
<path d="M47.739 43.2105C49.5889 42.0212 50.1174 39.5106 48.9282 37.6607C47.739 35.8107 45.2285 35.2822 43.3786 36.4714L15.6308 54.1779C13.781 55.3671 13.2524 57.8778 14.4416 59.7277C15.6308 61.5776 18.1413 62.1062 19.9912 60.9169L47.739 43.2105Z" fill="#E29D81"/>
<path d="M53.5525 48.4956C55.4023 47.3064 55.9309 44.7958 54.7417 42.9458C53.5525 41.0959 51.042 40.5673 49.1921 41.7566L21.4443 59.4631C19.5944 60.6523 19.0659 63.1629 20.2551 65.0128C21.4443 66.8628 23.9548 67.3913 25.8047 66.2021L53.5525 48.4956Z" fill="#E29D81"/>
<path d="M47.6067 34.0923C49.4565 32.9031 49.9851 30.3924 48.7959 28.5425C47.6067 26.6926 45.0962 26.164 43.2463 27.3533L15.4985 45.0597C13.6486 46.249 13.1201 48.7596 14.3093 50.6095C15.4985 52.4595 18.009 52.988 19.8589 51.7988L47.6067 34.0923Z" fill="#E29D81"/>
<path d="M53.1558 21.4072C53.1558 21.4072 37.5636 23.6536 36.2422 24.05C35.0529 24.4464 31.3531 33.4318 35.5815 34.4889C39.942 35.546 46.8132 29.9962 46.8132 29.9962L53.1558 21.4072Z" fill="#E29D81"/>
<path d="M61.092 16.4471L56.9658 19.0708L72.2817 43.1587L76.4078 40.535L61.092 16.4471Z" fill="white"/>
<path d="M61.0836 16.5176L56.9873 19.1603L72.3153 43.2094" fill="#DFE2E5"/>
<path d="M81.9619 0L58.4414 14.9316L76.1479 42.8127" fill="#1ECBC1"/>
<path d="M66.3697 54.0443L63.8592 52.4587C65.3126 52.5908 66.8982 51.9301 67.691 50.6088C68.8802 48.7588 68.3517 46.2482 66.5018 45.059L48.0033 33.2987C49.3246 30.5238 46.6819 24.5776 45.757 24.1812C44.5678 23.7848 30.2975 21.8027 28.9762 21.5384C24.4837 20.217 19.3305 22.1991 16.5557 26.5597L12.3275 33.1666C8.89203 38.4521 10.2134 45.3232 15.2344 48.4946L16.4236 49.2874C16.5557 49.4195 16.82 49.6838 17.0842 49.8159L44.8321 67.5224C46.6819 68.7116 49.1925 68.1831 50.3817 66.3332C51.0423 65.2761 51.1745 64.0868 50.7781 63.0297L56.0634 66.4653C57.9132 67.6545 60.4237 67.126 61.6129 65.2761C62.5378 63.9547 62.4057 62.2369 61.6129 61.0477L61.8772 61.1798C63.727 62.369 66.2376 61.8405 67.4267 59.9905C68.8802 57.7442 68.3517 55.2336 66.3697 54.0443Z" fill="#F9BDA0"/>
<path d="M46.1531 65.9365C45.3603 65.408 45.096 64.483 45.6246 63.6902L46.1531 62.7652C46.6817 61.9724 47.6067 61.7081 48.3995 62.2367C49.1923 62.7652 49.4566 63.6902 48.928 64.483L48.3995 65.408C48.0031 66.2008 46.946 66.4651 46.1531 65.9365Z" fill="#FFE4C7"/>
<path d="M63.3314 59.4619C62.5385 58.9334 62.2743 58.0084 62.8028 57.2156L63.3314 56.2906C63.8599 55.4978 64.7849 55.2335 65.5777 55.762C66.3705 56.2906 66.6348 57.2156 66.1063 58.0084L65.5777 58.9334C65.1813 59.7262 64.1242 59.9905 63.3314 59.4619Z" fill="#FFE4C7"/>
<path d="M57.5169 64.7468C56.7241 64.2183 56.4598 63.2933 56.9884 62.5005L57.5169 61.5755C58.0455 60.7827 58.9704 60.5184 59.7633 61.047C60.5561 61.5755 60.8204 62.5005 60.2918 63.2933L59.7633 64.2183C59.2347 65.0111 58.3097 65.2754 57.5169 64.7468Z" fill="#FFE4C7"/>
<path d="M63.4632 50.4766C62.6704 49.948 62.4061 49.023 62.9347 48.2302L63.4632 47.3052C63.9918 46.5124 64.9167 46.2481 65.7096 46.7767C66.5024 47.3052 66.7667 48.2302 66.2381 49.023L65.8417 49.948C65.3131 50.7408 64.256 50.873 63.4632 50.4766Z" fill="#FFE4C7"/>
<path d="M5.56208 40.5928L9.68799 43.2158L25.0006 19.1294L20.8747 16.5064L5.56208 40.5928Z" fill="white"/>
<path d="M20.9163 16.5176L25.0126 19.1603L9.68457 43.2094" fill="#DFE2E5"/>
<path d="M0.0385742 0L23.5591 14.9316L5.85264 42.8127" fill="#1A2B49"/>
<path d="M9.28777 25.3707C8.49495 26.6921 6.77715 26.9563 5.58791 26.1635C4.26653 25.3707 4.00226 23.6529 4.79509 22.4636C5.58791 21.1423 7.30571 20.878 8.49495 21.6708C9.68419 22.4636 10.0806 24.1814 9.28777 25.3707Z" fill="#FFC114"/>
<path d="M66.5014 44.9265L48.0028 33.1662C49.3242 30.3913 46.6815 24.4451 45.7566 24.0487C45.2281 23.7844 41.5283 23.2558 37.6965 22.7273L33.4683 35.9411L68.2191 47.0407C67.9548 46.2478 67.4263 45.455 66.5014 44.9265Z" fill="#E8AB92"/>
<path d="M48.9282 24.9735C50.1174 26.9556 50.6459 32.109 49.0603 33.034L35.7144 35.941C34.1287 36.866 32.0145 35.941 30.8253 34.0911C29.636 32.109 30.0324 29.8626 31.6181 28.9377L41.132 23.3879C42.7177 22.4629 47.6068 22.7272 48.796 24.5771L48.9282 24.9735Z" fill="#E29D81"/>
<defs>
<linearGradient id="paint0_linear_1:3905" x1="70.2017" y1="42.8127" x2="70.2017" y2="0" gradientUnits="userSpaceOnUse">
<stop stop-color="#009EFD"/>
<stop offset="1" stop-color="#2AF598"/>
</linearGradient>
</defs>
</svg>
